<svg xmlns="http://www.w3.org/2000/svg" width="65.51" height="49.9" viewBox="0 0 65.51 49.9">
  <g id="ic_email" transform="translate(0 -61)">
    <g id="Group_476" data-name="Group 476" transform="translate(0 61)">
      <path id="Path_950" data-name="Path 950" d="M59.753,61H5.758A5.768,5.768,0,0,0,0,66.758v38.385A5.767,5.767,0,0,0,5.758,110.9H59.753a5.767,5.767,0,0,0,5.758-5.758V66.758A5.767,5.767,0,0,0,59.753,61Zm-.8,3.838-26.08,26.08L6.571,64.838ZM3.838,104.348V67.534L22.325,85.862Zm2.714,2.714,18.5-18.5,6.482,6.426a1.919,1.919,0,0,0,2.708-.006l6.32-6.32,18.4,18.4Zm55.119-2.714-18.4-18.4,18.4-18.4Z" transform="translate(0 -61)" fill="#fff"/>
    </g>
  </g>
</svg>
