<svg xmlns="http://www.w3.org/2000/svg" width="57" height="69.003" viewBox="0 0 57 69.003">
  <g id="ic_lock" transform="translate(1 1)">
    <path id="Path_937" data-name="Path 937" d="M52.5,24.956V17.991C52.5,8.071,43.528,0,32.5,0s-20,8.071-20,17.991v6.965A9,9,0,0,0,5,33.787V58.034A9.013,9.013,0,0,0,14.036,67H50.964A9.013,9.013,0,0,0,60,58.033V33.785A9,9,0,0,0,52.5,24.956ZM15,17.991c0-8.553,7.85-15.51,17.5-15.51S50,9.439,50,17.991v6.824H15ZM57.5,58.033a6.52,6.52,0,0,1-6.536,6.488H14.036A6.52,6.52,0,0,1,7.5,58.033V33.785A6.52,6.52,0,0,1,14.036,27.3H50.964A6.52,6.52,0,0,1,57.5,33.785Z" transform="translate(-5)" fill="#fff" stroke="#fff" stroke-width="2"/>
    <path id="Path_938" data-name="Path 938" d="M27.964,28A4.969,4.969,0,0,0,23,32.964v7.445a4.964,4.964,0,0,0,9.927,0V32.964A4.969,4.969,0,0,0,27.964,28Zm2.482,12.409a2.482,2.482,0,0,1-4.964,0V32.964a2.482,2.482,0,0,1,4.964,0Z" transform="translate(-0.464 6.741)" fill="#fff" stroke="#fff" stroke-width="2"/>
  </g>
</svg>
